<?xml version="1.0" encoding="UTF-8"?>
<svg xmlns="http://www.w3.org/2000/svg" xmlns:xlink="http://www.w3.org/1999/xlink" width="391.181pt" height="311.811pt" viewBox="0 0 391.181 311.811">
<path fill-rule="nonzero" fill="rgb(13.729858%, 12.159729%, 12.548828%)" fill-opacity="1" d="M 15.324219 239.96875 C 16.292969 238.871094 17.535156 238.328125 19.058594 238.328125 C 21.128906 238.328125 22.785156 239.160156 24.03125 240.816406 L 24.03125 246.828125 C 22.871094 248.488281 21.25 249.3125 19.179688 249.3125 C 17.664062 249.3125 16.398438 248.800781 15.386719 247.757812 C 14.378906 246.722656 13.875 245.414062 13.875 243.839844 C 13.875 242.347656 14.355469 241.058594 15.324219 239.96875 M 18.644531 254.289062 C 20.769531 254.289062 22.632812 253.609375 24.242188 252.257812 L 24.242188 253.875 L 29.417969 253.875 L 29.417969 224.441406 L 24.03125 224.441406 L 24.03125 235.21875 C 22.457031 233.976562 20.5625 233.351562 18.351562 233.351562 C 15.617188 233.351562 13.292969 234.363281 11.367188 236.378906 C 9.453125 238.398438 8.488281 240.882812 8.488281 243.839844 C 8.488281 246.554688 9.347656 248.902344 11.054688 250.890625 C 13.015625 253.15625 15.550781 254.289062 18.644531 254.289062 "/>
<path fill-rule="nonzero" fill="rgb(13.729858%, 12.159729%, 12.548828%)" fill-opacity="1" d="M 39.449219 241.230469 C 39.582031 240.292969 40.070312 239.46875 40.894531 238.761719 C 41.726562 238.0625 42.675781 237.703125 43.757812 237.703125 C 44.804688 237.703125 45.710938 238.0625 46.472656 238.761719 C 47.230469 239.46875 47.648438 240.292969 47.730469 241.230469 Z M 53.25 243.632812 C 53.25 240.789062 52.347656 238.363281 50.550781 236.359375 C 48.753906 234.355469 46.488281 233.351562 43.757812 233.351562 C 40.855469 233.351562 38.496094 234.375 36.6875 236.421875 C 34.882812 238.464844 33.972656 240.941406 33.972656 243.839844 C 33.972656 246.964844 34.972656 249.484375 36.957031 251.410156 C 38.949219 253.332031 41.464844 254.289062 44.503906 254.289062 C 46.082031 254.289062 47.601562 253.972656 49.078125 253.335938 C 50.558594 252.699219 51.78125 251.8125 52.75 250.683594 L 49.679688 247.613281 C 48.25 249.164062 46.558594 249.9375 44.625 249.9375 C 43.1875 249.9375 41.957031 249.492188 40.933594 248.609375 C 39.917969 247.722656 39.339844 246.582031 39.199219 245.167969 L 53.121094 245.167969 C 53.207031 244.726562 53.25 244.214844 53.25 243.632812 "/>
<path fill-rule="nonzero" fill="rgb(13.729858%, 12.159729%, 12.548828%)" fill-opacity="1" d="M 98.207031 253.875 L 98.207031 224.859375 L 94.273438 224.859375 L 83.703125 242.226562 L 73.136719 224.859375 L 69.199219 224.859375 L 69.199219 253.875 L 74.796875 253.875 L 74.796875 237.703125 L 81.757812 249.105469 L 85.652344 249.105469 L 92.613281 237.703125 L 92.613281 253.875 Z M 98.207031 253.875 "/>
<path fill-rule="nonzero" fill="rgb(13.729858%, 12.159729%, 12.548828%)" fill-opacity="1" d="M 118.511719 246.828125 C 117.355469 248.488281 115.742188 249.3125 113.664062 249.3125 C 112.148438 249.3125 110.882812 248.800781 109.871094 247.757812 C 108.871094 246.722656 108.367188 245.414062 108.367188 243.839844 C 108.367188 242.347656 108.847656 241.058594 109.8125 239.96875 C 110.78125 238.871094 112.023438 238.328125 113.542969 238.328125 C 115.613281 238.328125 117.277344 239.160156 118.511719 240.816406 Z M 123.90625 253.875 L 123.90625 233.769531 L 118.71875 233.769531 L 118.71875 235.382812 C 117.070312 234.03125 115.109375 233.351562 112.839844 233.351562 C 110.101562 233.351562 107.773438 234.363281 105.855469 236.378906 C 103.933594 238.398438 102.976562 240.886719 102.976562 243.839844 C 102.976562 246.554688 103.832031 248.902344 105.542969 250.890625 C 107.507812 253.15625 110.03125 254.289062 113.128906 254.289062 C 115.253906 254.289062 117.125 253.609375 118.71875 252.257812 L 118.71875 253.875 Z M 123.90625 253.875 "/>
<path fill-rule="nonzero" fill="rgb(13.729858%, 12.159729%, 12.548828%)" fill-opacity="1" d="M 144.414062 249.3125 C 143.808594 249.453125 143.082031 249.519531 142.222656 249.519531 C 140.980469 249.519531 140.066406 249.1875 139.488281 248.523438 C 139.046875 248.003906 138.824219 247.15625 138.824219 245.996094 L 138.824219 238.328125 L 145.457031 238.328125 L 145.457031 233.769531 L 138.824219 233.769531 L 138.824219 228.171875 L 133.433594 228.171875 L 133.433594 233.769531 L 127.84375 233.769531 L 127.84375 238.328125 L 133.433594 238.328125 L 133.433594 245.375 C 133.433594 248.058594 133.929688 250.058594 134.925781 251.386719 C 136.394531 253.324219 138.714844 254.289062 141.890625 254.289062 C 143.355469 254.289062 144.46875 254.148438 145.25 253.871094 Z M 144.414062 249.3125 "/>
<path fill-rule="nonzero" fill="rgb(13.729858%, 12.159729%, 12.548828%)" fill-opacity="1" d="M 163.105469 239.445312 C 163.90625 240.25 164.308594 241.503906 164.308594 243.21875 L 164.308594 253.875 L 169.695312 253.875 L 169.695312 243.632812 C 169.695312 240.566406 169.007812 238.21875 167.625 236.585938 C 165.828125 234.429688 163.507812 233.351562 160.664062 233.351562 C 158.621094 233.351562 156.796875 233.976562 155.1875 235.21875 L 155.1875 224.445312 L 149.804688 224.445312 L 149.804688 253.875 L 155.1875 253.875 L 155.1875 240.816406 C 155.636719 240.179688 156.304688 239.605469 157.203125 239.09375 C 158.105469 238.585938 159.058594 238.328125 160.085938 238.328125 C 161.351562 238.328125 162.363281 238.703125 163.105469 239.445312 "/>
<path fill-rule="nonzero" fill="rgb(13.729858%, 12.159729%, 12.548828%)" fill-opacity="1" d="M 181.804688 230.660156 L 185.523438 230.660156 L 190.503906 224.027344 L 184.703125 224.027344 Z M 181.804688 230.660156 "/>
<path fill-rule="nonzero" fill="rgb(13.729858%, 12.159729%, 12.548828%)" fill-opacity="1" d="M 179.308594 241.230469 C 179.449219 240.292969 179.933594 239.46875 180.761719 238.761719 C 181.59375 238.0625 182.546875 237.703125 183.621094 237.703125 C 184.671875 237.703125 185.574219 238.0625 186.335938 238.761719 C 187.09375 239.46875 187.515625 240.292969 187.601562 241.230469 Z M 183.621094 233.351562 C 180.71875 233.351562 178.363281 234.375 176.554688 236.421875 C 174.742188 238.464844 173.84375 240.941406 173.84375 243.839844 C 173.84375 246.964844 174.835938 249.484375 176.824219 251.410156 C 178.8125 253.332031 181.328125 254.289062 184.367188 254.289062 C 185.941406 254.289062 187.464844 253.972656 188.949219 253.335938 C 190.425781 252.699219 191.644531 251.8125 192.621094 250.683594 L 189.546875 247.613281 C 188.109375 249.164062 186.425781 249.9375 184.496094 249.9375 C 183.054688 249.9375 181.828125 249.492188 180.804688 248.609375 C 179.78125 247.722656 179.199219 246.582031 179.0625 245.167969 L 192.992188 245.167969 C 193.070312 244.726562 193.113281 244.214844 193.113281 243.632812 C 193.113281 240.789062 192.210938 238.363281 190.417969 236.359375 C 188.625 234.355469 186.359375 233.351562 183.621094 233.351562 "/>
<path fill-rule="nonzero" fill="rgb(13.729858%, 12.159729%, 12.548828%)" fill-opacity="1" d="M 226.121094 234.222656 C 224.863281 233.644531 223.542969 233.351562 222.160156 233.351562 C 219.402344 233.351562 217.027344 234.402344 215.035156 236.503906 C 213.292969 234.402344 211.042969 233.351562 208.28125 233.351562 C 206.179688 233.351562 204.367188 234.03125 202.847656 235.382812 L 202.847656 233.769531 L 197.671875 233.769531 L 197.671875 253.871094 L 203.058594 253.871094 L 203.058594 240.816406 C 204.355469 239.160156 205.917969 238.328125 207.742188 238.328125 C 209.011719 238.328125 210.019531 238.746094 210.765625 239.570312 C 211.429688 240.320312 211.757812 241.464844 211.757812 243.011719 L 211.757812 253.871094 L 217.148438 253.871094 L 217.148438 243.21875 C 217.148438 242.609375 217.089844 241.863281 216.984375 240.980469 C 217.421875 240.320312 218.082031 239.707031 218.953125 239.160156 C 219.824219 238.605469 220.785156 238.328125 221.832031 238.328125 C 223.105469 238.328125 224.109375 238.746094 224.855469 239.570312 C 225.519531 240.320312 225.851562 241.464844 225.851562 243.011719 L 225.851562 253.871094 L 231.234375 253.871094 L 231.234375 243.21875 C 231.234375 240.457031 230.558594 238.246094 229.210938 236.585938 C 228.40625 235.59375 227.378906 234.800781 226.121094 234.222656 "/>
<path fill-rule="nonzero" fill="rgb(13.729858%, 12.159729%, 12.548828%)" fill-opacity="1" d="M 250.929688 246.828125 C 249.765625 248.488281 248.144531 249.3125 246.074219 249.3125 C 244.558594 249.3125 243.292969 248.800781 242.289062 247.757812 C 241.273438 246.722656 240.769531 245.414062 240.769531 243.839844 C 240.769531 242.347656 241.25 241.058594 242.222656 239.96875 C 243.1875 238.871094 244.433594 238.328125 245.953125 238.328125 C 248.023438 238.328125 249.679688 239.160156 250.929688 240.816406 Z M 251.136719 235.382812 C 249.476562 234.03125 247.511719 233.351562 245.246094 233.351562 C 242.511719 233.351562 240.1875 234.363281 238.265625 236.378906 C 236.347656 238.398438 235.382812 240.886719 235.382812 243.839844 C 235.382812 246.554688 236.242188 248.902344 237.953125 250.890625 C 239.917969 253.15625 242.445312 254.289062 245.539062 254.289062 C 247.664062 254.289062 249.527344 253.609375 251.136719 252.257812 L 251.136719 253.875 L 256.3125 253.875 L 256.3125 233.769531 L 251.136719 233.769531 Z M 251.136719 235.382812 "/>
<path fill-rule="nonzero" fill="rgb(13.729858%, 12.159729%, 12.548828%)" fill-opacity="1" d="M 271.234375 228.171875 L 265.847656 228.171875 L 265.847656 233.769531 L 260.25 233.769531 L 260.25 238.328125 L 265.847656 238.328125 L 265.847656 245.375 C 265.847656 248.058594 266.34375 250.058594 267.335938 251.386719 C 268.800781 253.324219 271.117188 254.289062 274.296875 254.289062 C 275.757812 254.289062 276.886719 254.148438 277.65625 253.875 L 276.828125 249.3125 C 276.214844 249.453125 275.488281 249.519531 274.628906 249.519531 C 273.386719 249.519531 272.472656 249.1875 271.894531 248.523438 C 271.453125 248 271.234375 247.15625 271.234375 245.996094 L 271.234375 238.328125 L 277.859375 238.328125 L 277.859375 233.769531 L 271.234375 233.769531 Z M 271.234375 228.171875 "/>
<path fill-rule="nonzero" fill="rgb(13.729858%, 12.159729%, 12.548828%)" fill-opacity="1" d="M 283.039062 253.875 L 288.429688 253.875 L 288.429688 233.769531 L 283.039062 233.769531 Z M 283.039062 253.875 "/>
<path fill-rule="nonzero" fill="rgb(13.729858%, 12.159729%, 12.548828%)" fill-opacity="1" d="M 285.734375 223.195312 C 284.765625 223.195312 283.941406 223.527344 283.25 224.191406 C 282.554688 224.859375 282.210938 225.671875 282.210938 226.636719 C 282.210938 227.609375 282.554688 228.421875 283.25 229.085938 C 283.941406 229.746094 284.765625 230.078125 285.734375 230.078125 C 286.699219 230.078125 287.53125 229.746094 288.222656 229.085938 C 288.90625 228.421875 289.257812 227.609375 289.257812 226.636719 C 289.257812 225.671875 288.90625 224.859375 288.222656 224.191406 C 287.53125 223.527344 286.699219 223.195312 285.734375 223.195312 "/>
<path fill-rule="nonzero" fill="rgb(13.729858%, 12.159729%, 12.548828%)" fill-opacity="1" d="M 308.527344 246.828125 C 307.367188 248.488281 305.753906 249.3125 303.679688 249.3125 C 302.160156 249.3125 300.898438 248.800781 299.886719 247.757812 C 298.882812 246.722656 298.375 245.414062 298.375 243.839844 C 298.375 242.347656 298.859375 241.058594 299.820312 239.96875 C 300.796875 238.871094 302.035156 238.328125 303.554688 238.328125 C 305.628906 238.328125 307.289062 239.160156 308.527344 240.816406 Z M 308.734375 235.382812 C 307.078125 234.03125 305.121094 233.351562 302.855469 233.351562 C 300.117188 233.351562 297.785156 234.363281 295.867188 236.378906 C 293.945312 238.398438 292.992188 240.886719 292.992188 243.839844 C 292.992188 246.582031 293.832031 248.925781 295.515625 250.890625 C 296.429688 251.9375 297.554688 252.765625 298.917969 253.375 C 300.269531 253.984375 301.671875 254.289062 303.140625 254.289062 C 305.160156 254.289062 306.953125 253.679688 308.527344 252.464844 L 308.527344 263.824219 L 313.914062 263.824219 L 313.914062 233.769531 L 308.734375 233.769531 Z M 308.734375 235.382812 "/>
<path fill-rule="nonzero" fill="rgb(13.729858%, 12.159729%, 12.548828%)" fill-opacity="1" d="M 333.804688 246.828125 C 332.511719 248.488281 330.949219 249.3125 329.128906 249.3125 C 327.847656 249.3125 326.84375 248.902344 326.097656 248.066406 C 325.4375 247.324219 325.105469 246.175781 325.105469 244.632812 L 325.105469 233.769531 L 319.714844 233.769531 L 319.714844 244.425781 C 319.714844 247.1875 320.394531 249.394531 321.75 251.054688 C 323.488281 253.210938 325.765625 254.289062 328.585938 254.289062 C 330.683594 254.289062 332.492188 253.609375 334.015625 252.257812 L 334.015625 253.875 L 339.191406 253.875 L 339.191406 233.769531 L 333.804688 233.769531 Z M 333.804688 246.828125 "/>
<path fill-rule="nonzero" fill="rgb(13.729858%, 12.159729%, 12.548828%)" fill-opacity="1" d="M 349.222656 241.230469 C 349.363281 240.292969 349.847656 239.46875 350.675781 238.761719 C 351.503906 238.0625 352.457031 237.703125 353.53125 237.703125 C 354.585938 237.703125 355.488281 238.0625 356.246094 238.761719 C 357.007812 239.46875 357.429688 240.292969 357.515625 241.230469 Z M 353.53125 233.351562 C 350.632812 233.351562 348.277344 234.375 346.46875 236.421875 C 344.65625 238.464844 343.753906 240.941406 343.753906 243.839844 C 343.753906 246.964844 344.75 249.484375 346.738281 251.410156 C 348.726562 253.332031 351.242188 254.289062 354.28125 254.289062 C 355.851562 254.289062 357.378906 253.972656 358.859375 253.335938 C 360.332031 252.699219 361.5625 251.8125 362.527344 250.683594 L 359.460938 247.613281 C 358.019531 249.164062 356.335938 249.9375 354.40625 249.9375 C 352.964844 249.9375 351.738281 249.492188 350.71875 248.609375 C 349.691406 247.722656 349.109375 246.582031 348.976562 245.167969 L 362.902344 245.167969 C 362.980469 244.726562 363.027344 244.214844 363.027344 243.632812 C 363.027344 240.789062 362.128906 238.363281 360.328125 236.359375 C 358.535156 234.355469 356.269531 233.351562 353.53125 233.351562 "/>
<path fill-rule="nonzero" fill="rgb(13.729858%, 12.159729%, 12.548828%)" fill-opacity="1" d="M 380.886719 244.777344 C 380.222656 243.875 379.414062 243.210938 378.460938 242.785156 C 377.507812 242.359375 376.546875 241.992188 375.582031 241.683594 C 374.613281 241.382812 373.800781 241.066406 373.132812 240.734375 C 372.476562 240.402344 372.144531 240.003906 372.144531 239.527344 C 372.144531 239.03125 372.40625 238.640625 372.929688 238.347656 C 373.453125 238.0625 374.105469 237.914062 374.875 237.914062 C 376.175781 237.914062 377.457031 238.371094 378.734375 239.28125 L 381.257812 235.382812 C 380.566406 234.832031 379.570312 234.355469 378.277344 233.957031 C 376.972656 233.558594 375.703125 233.351562 374.464844 233.351562 C 372.390625 233.351562 370.589844 233.9375 369.054688 235.09375 C 367.523438 236.253906 366.753906 237.765625 366.753906 239.613281 C 366.753906 240.804688 367.085938 241.816406 367.746094 242.664062 C 368.410156 243.503906 369.222656 244.125 370.195312 244.527344 C 371.15625 244.925781 372.121094 245.277344 373.074219 245.582031 C 374.027344 245.886719 374.835938 246.230469 375.492188 246.621094 C 376.164062 247.003906 376.496094 247.476562 376.496094 248.027344 C 376.496094 248.523438 376.242188 248.933594 375.746094 249.25 C 375.25 249.566406 374.640625 249.726562 373.921875 249.726562 C 371.710938 249.726562 369.878906 249.066406 368.410156 247.738281 L 365.800781 251.59375 C 368.230469 253.390625 370.921875 254.289062 373.882812 254.289062 C 376.089844 254.289062 377.980469 253.714844 379.535156 252.570312 C 381.101562 251.421875 381.878906 249.921875 381.878906 248.066406 C 381.878906 246.773438 381.546875 245.671875 380.886719 244.777344 "/>
<path fill-rule="nonzero" fill="rgb(13.729858%, 12.159729%, 12.548828%)" fill-opacity="1" d="M 22.660156 278.292969 C 21.941406 279.066406 20.765625 279.453125 19.132812 279.453125 L 14.082031 279.453125 L 14.082031 272.199219 L 19.132812 272.199219 C 20.765625 272.199219 21.941406 272.585938 22.660156 273.359375 C 23.292969 274.050781 23.609375 274.882812 23.609375 275.847656 C 23.609375 276.789062 23.292969 277.601562 22.660156 278.292969 M 19.382812 267.226562 L 8.488281 267.226562 L 8.488281 296.246094 L 14.082031 296.246094 L 14.082031 284.425781 L 19.382812 284.425781 C 22.785156 284.425781 25.296875 283.570312 26.929688 281.855469 C 28.445312 280.28125 29.207031 278.277344 29.207031 275.847656 C 29.207031 273.414062 28.445312 271.410156 26.929688 269.835938 C 25.269531 268.097656 22.757812 267.226562 19.382812 267.226562 "/>
<path fill-rule="nonzero" fill="rgb(13.729858%, 12.159729%, 12.548828%)" fill-opacity="1" d="M 45.164062 290.105469 C 44.167969 291.15625 42.898438 291.679688 41.347656 291.679688 C 39.804688 291.679688 38.53125 291.15625 37.539062 290.105469 C 36.539062 289.054688 36.046875 287.761719 36.046875 286.210938 C 36.046875 284.664062 36.539062 283.359375 37.539062 282.292969 C 38.53125 281.230469 39.804688 280.695312 41.347656 280.695312 C 42.898438 280.695312 44.167969 281.230469 45.164062 282.292969 C 46.160156 283.359375 46.652344 284.664062 46.652344 286.210938 C 46.652344 287.761719 46.160156 289.054688 45.164062 290.105469 M 41.347656 275.71875 C 38.308594 275.71875 35.769531 276.742188 33.726562 278.773438 C 31.679688 280.796875 30.65625 283.28125 30.65625 286.210938 C 30.65625 289.140625 31.679688 291.613281 33.726562 293.628906 C 35.769531 295.648438 38.308594 296.65625 41.347656 296.65625 C 44.390625 296.65625 46.929688 295.648438 48.976562 293.628906 C 51.019531 291.613281 52.039062 289.140625 52.039062 286.210938 C 52.039062 283.28125 51.019531 280.796875 48.976562 278.773438 C 46.929688 276.742188 44.390625 275.71875 41.347656 275.71875 "/>
<path fill-rule="nonzero" fill="rgb(13.729858%, 12.159729%, 12.548828%)" fill-opacity="1" d="M 56.601562 296.246094 L 61.988281 296.246094 L 61.988281 276.136719 L 56.601562 276.136719 Z M 56.601562 296.246094 "/>
<path fill-rule="nonzero" fill="rgb(13.729858%, 12.159729%, 12.548828%)" fill-opacity="1" d="M 59.296875 265.5625 C 58.324219 265.5625 57.5 265.898438 56.8125 266.558594 C 56.113281 267.226562 55.769531 268.042969 55.769531 269.007812 C 55.769531 269.972656 56.113281 270.789062 56.8125 271.453125 C 57.5 272.113281 58.324219 272.445312 59.296875 272.445312 C 60.261719 272.445312 61.09375 272.113281 61.785156 271.453125 C 62.472656 270.789062 62.8125 269.972656 62.8125 269.007812 C 62.8125 268.042969 62.472656 267.226562 61.785156 266.558594 C 61.09375 265.898438 60.261719 265.5625 59.296875 265.5625 "/>
<path fill-rule="nonzero" fill="rgb(13.729858%, 12.159729%, 12.548828%)" fill-opacity="1" d="M 79.0625 275.71875 C 76.933594 275.71875 75.042969 276.398438 73.386719 277.75 L 73.386719 276.136719 L 68.207031 276.136719 L 68.207031 296.242188 L 73.589844 296.242188 L 73.589844 283.183594 C 74.039062 282.546875 74.703125 281.976562 75.597656 281.464844 C 76.503906 280.957031 77.460938 280.695312 78.484375 280.695312 C 79.75 280.695312 80.765625 281.070312 81.507812 281.816406 C 82.308594 282.617188 82.714844 283.875 82.714844 285.589844 L 82.714844 296.242188 L 88.097656 296.242188 L 88.097656 286.003906 C 88.097656 282.933594 87.410156 280.585938 86.023438 278.957031 C 84.226562 276.800781 81.90625 275.71875 79.0625 275.71875 "/>
<path fill-rule="nonzero" fill="rgb(13.729858%, 12.159729%, 12.548828%)" fill-opacity="1" d="M 105.976562 290.914062 C 105.136719 291.425781 104.207031 291.679688 103.183594 291.679688 C 101.550781 291.679688 100.222656 291.164062 99.179688 290.125 C 98.148438 289.089844 97.625 287.789062 97.625 286.210938 C 97.625 284.660156 98.148438 283.359375 99.179688 282.289062 C 100.222656 281.230469 101.507812 280.695312 103.058594 280.695312 C 104.9375 280.695312 106.484375 281.5 107.699219 283.105469 L 111.515625 279.742188 C 110.542969 278.527344 109.324219 277.550781 107.839844 276.824219 C 106.367188 276.089844 104.773438 275.71875 103.058594 275.71875 C 99.996094 275.71875 97.417969 276.742188 95.347656 278.769531 C 93.273438 280.796875 92.242188 283.285156 92.242188 286.210938 C 92.242188 289.140625 93.261719 291.613281 95.304688 293.628906 C 97.351562 295.648438 99.925781 296.660156 103.015625 296.660156 C 106.832031 296.660156 109.867188 295.148438 112.132812 292.136719 L 107.988281 289.03125 C 107.492188 289.777344 106.824219 290.40625 105.976562 290.914062 "/>
<path fill-rule="nonzero" fill="rgb(13.729858%, 12.159729%, 12.548828%)" fill-opacity="1" d="M 130.164062 289.195312 C 129 290.851562 127.382812 291.679688 125.3125 291.679688 C 123.796875 291.679688 122.53125 291.164062 121.523438 290.125 C 120.507812 289.089844 120.007812 287.789062 120.007812 286.210938 C 120.007812 284.714844 120.488281 283.429688 121.457031 282.335938 C 122.425781 281.246094 123.667969 280.695312 125.191406 280.695312 C 127.257812 280.695312 128.917969 281.527344 130.164062 283.183594 Z M 130.371094 277.75 C 128.710938 276.398438 126.75 275.71875 124.480469 275.71875 C 121.75 275.71875 119.425781 276.734375 117.5 278.75 C 115.582031 280.765625 114.617188 283.253906 114.617188 286.210938 C 114.617188 288.921875 115.476562 291.265625 117.191406 293.257812 C 119.148438 295.523438 121.679688 296.65625 124.773438 296.65625 C 126.902344 296.65625 128.765625 295.976562 130.371094 294.625 L 130.371094 296.242188 L 135.546875 296.242188 L 135.546875 276.136719 L 130.371094 276.136719 Z M 130.371094 277.75 "/>
<path fill-rule="nonzero" fill="rgb(13.729858%, 12.159729%, 12.548828%)" fill-opacity="1" d="M 146.941406 278.167969 L 146.941406 276.136719 L 141.765625 276.136719 L 141.765625 296.246094 L 147.148438 296.246094 L 147.148438 283.601562 C 147.542969 282.882812 148.183594 282.214844 149.078125 281.609375 C 149.980469 281.003906 150.960938 280.695312 152.042969 280.695312 C 152.925781 280.695312 153.574219 280.765625 153.992188 280.902344 L 154.613281 275.890625 C 153.835938 275.777344 153.230469 275.71875 152.789062 275.71875 C 150.21875 275.71875 148.273438 276.535156 146.941406 278.167969 "/>
<path fill-rule="nonzero" fill="rgb(13.729858%, 12.159729%, 12.548828%)" fill-opacity="1" d="M 161.945312 283.601562 C 162.078125 282.660156 162.570312 281.835938 163.394531 281.132812 C 164.222656 280.425781 165.179688 280.070312 166.257812 280.070312 C 167.304688 280.070312 168.207031 280.425781 168.972656 281.132812 C 169.730469 281.835938 170.148438 282.660156 170.234375 283.601562 Z M 166.257812 275.71875 C 163.355469 275.71875 161 276.746094 159.191406 278.792969 C 157.378906 280.832031 156.476562 283.3125 156.476562 286.210938 C 156.476562 289.332031 157.46875 291.855469 159.460938 293.773438 C 161.449219 295.695312 163.960938 296.65625 167.007812 296.65625 C 168.578125 296.65625 170.105469 296.34375 171.582031 295.703125 C 173.058594 295.066406 174.285156 294.183594 175.246094 293.050781 L 172.183594 289.984375 C 170.742188 291.53125 169.0625 292.304688 167.128906 292.304688 C 165.6875 292.304688 164.453125 291.863281 163.4375 290.976562 C 162.414062 290.09375 161.835938 288.945312 161.695312 287.539062 L 175.625 287.539062 C 175.710938 287.09375 175.75 286.582031 175.75 286 C 175.75 283.15625 174.84375 280.730469 173.046875 278.726562 C 171.253906 276.726562 168.992188 275.71875 166.257812 275.71875 "/>
<path fill-rule="nonzero" fill="rgb(13.729858%, 12.159729%, 12.548828%)" fill-opacity="1" d="M 164.429688 273.027344 L 168.164062 273.027344 L 173.136719 266.394531 L 167.335938 266.394531 Z M 164.429688 273.027344 "/>
<path fill-rule="nonzero" fill="rgb(13.729858%, 12.159729%, 12.548828%)" fill-opacity="1" d="M 14.4375 188.042969 L 21.839844 200.164062 L 25.980469 200.164062 L 33.386719 188.042969 L 33.386719 205.234375 L 39.335938 205.234375 L 39.335938 174.378906 L 35.148438 174.378906 L 23.910156 192.847656 L 12.675781 174.378906 L 8.488281 174.378906 L 8.488281 205.234375 L 14.4375 205.234375 Z M 14.4375 188.042969 "/>
<path fill-rule="nonzero" fill="rgb(13.729858%, 12.159729%, 12.548828%)" fill-opacity="1" d="M 60.929688 197.738281 C 59.6875 199.503906 57.976562 200.382812 55.765625 200.382812 C 54.152344 200.382812 52.808594 199.835938 51.738281 198.730469 C 50.667969 197.628906 50.136719 196.242188 50.136719 194.570312 C 50.136719 192.980469 50.644531 191.605469 51.671875 190.449219 C 52.699219 189.285156 54.019531 188.707031 55.636719 188.707031 C 57.839844 188.707031 59.601562 189.585938 60.929688 191.347656 Z M 61.148438 185.578125 C 59.382812 184.136719 57.296875 183.414062 54.890625 183.414062 C 51.976562 183.414062 49.503906 184.488281 47.460938 186.636719 C 45.421875 188.777344 44.402344 191.421875 44.402344 194.570312 C 44.402344 197.445312 45.308594 199.945312 47.132812 202.0625 C 49.214844 204.464844 51.902344 205.675781 55.199219 205.675781 C 57.457031 205.675781 59.441406 204.953125 61.148438 203.515625 L 61.148438 205.234375 L 66.652344 205.234375 L 66.652344 183.859375 L 61.148438 183.859375 Z M 61.148438 185.578125 "/>
<path fill-rule="nonzero" fill="rgb(13.729858%, 12.159729%, 12.548828%)" fill-opacity="1" d="M 78.769531 190.449219 C 79.796875 189.285156 81.121094 188.707031 82.742188 188.707031 C 84.941406 188.707031 86.699219 189.589844 88.023438 191.347656 L 88.023438 197.738281 C 86.792969 199.503906 85.074219 200.382812 82.871094 200.382812 C 81.253906 200.382812 79.90625 199.832031 78.839844 198.730469 C 77.757812 197.628906 77.226562 196.242188 77.226562 194.570312 C 77.226562 192.980469 77.738281 191.605469 78.769531 190.449219 M 77.796875 204.703125 C 79.238281 205.351562 80.742188 205.675781 82.292969 205.675781 C 84.4375 205.675781 86.347656 205.027344 88.023438 203.734375 L 88.023438 204.4375 C 88.023438 206.820312 87.582031 208.496094 86.699219 209.464844 C 85.730469 210.609375 84.277344 211.183594 82.335938 211.183594 C 79.808594 211.183594 77.59375 210.152344 75.683594 208.101562 L 72.074219 211.84375 C 73.15625 213.136719 74.636719 214.195312 76.5 215.019531 C 78.367188 215.839844 80.316406 216.253906 82.335938 216.253906 C 84.363281 216.253906 86.207031 215.875 87.871094 215.125 C 89.53125 214.382812 90.839844 213.328125 91.8125 211.976562 C 93.101562 210.152344 93.753906 207.507812 93.753906 204.042969 L 93.753906 183.859375 L 88.242188 183.859375 L 88.242188 185.574219 C 86.476562 184.136719 84.390625 183.414062 81.988281 183.414062 C 79.078125 183.414062 76.609375 184.488281 74.566406 186.636719 C 72.519531 188.777344 71.496094 191.421875 71.496094 194.570312 C 71.496094 197.476562 72.394531 199.972656 74.1875 202.0625 C 75.15625 203.175781 76.359375 204.058594 77.796875 204.703125 "/>
<path fill-rule="nonzero" fill="rgb(13.729858%, 12.159729%, 12.548828%)" fill-opacity="1" d="M 103.222656 179.9375 C 104.257812 179.9375 105.132812 179.582031 105.867188 178.875 C 106.601562 178.167969 106.972656 177.304688 106.972656 176.273438 C 106.972656 175.25 106.601562 174.378906 105.867188 173.675781 C 105.132812 172.972656 104.257812 172.617188 103.222656 172.617188 C 102.199219 172.617188 101.308594 172.972656 100.578125 173.675781 C 99.851562 174.378906 99.476562 175.25 99.476562 176.273438 C 99.476562 177.304688 99.851562 178.167969 100.578125 178.875 C 101.308594 179.582031 102.199219 179.9375 103.222656 179.9375 "/>
<path fill-rule="nonzero" fill="rgb(13.729858%, 12.159729%, 12.548828%)" fill-opacity="1" d="M 106.089844 183.859375 L 100.359375 183.859375 L 100.359375 205.234375 L 106.089844 205.234375 Z M 106.089844 183.859375 "/>
<path fill-rule="nonzero" fill="rgb(13.729858%, 12.159729%, 12.548828%)" fill-opacity="1" d="M 121.15625 200.316406 C 120.628906 200.65625 119.988281 200.824219 119.222656 200.824219 C 116.867188 200.824219 114.921875 200.117188 113.359375 198.707031 L 110.585938 202.808594 C 113.167969 204.71875 116.035156 205.675781 119.179688 205.675781 C 121.527344 205.675781 123.53125 205.0625 125.1875 203.847656 C 126.851562 202.625 127.679688 201.03125 127.679688 199.066406 C 127.679688 197.679688 127.328125 196.511719 126.621094 195.554688 C 125.921875 194.605469 125.058594 193.898438 124.050781 193.441406 C 123.027344 192.988281 122.011719 192.601562 120.980469 192.273438 C 119.957031 191.953125 119.085938 191.613281 118.382812 191.261719 C 117.679688 190.90625 117.328125 190.484375 117.328125 189.980469 C 117.328125 189.453125 117.605469 189.035156 118.164062 188.726562 C 118.71875 188.421875 119.414062 188.265625 120.234375 188.265625 C 121.617188 188.265625 122.976562 188.75 124.332031 189.714844 L 127.019531 185.574219 C 126.289062 184.988281 125.226562 184.480469 123.847656 184.054688 C 122.464844 183.628906 121.113281 183.414062 119.796875 183.414062 C 117.59375 183.414062 115.675781 184.035156 114.042969 185.265625 C 112.410156 186.503906 111.59375 188.105469 111.59375 190.070312 C 111.59375 191.332031 111.949219 192.417969 112.65625 193.308594 C 113.359375 194.203125 114.222656 194.871094 115.257812 195.296875 C 116.28125 195.722656 117.304688 196.097656 118.316406 196.417969 C 119.332031 196.742188 120.1875 197.109375 120.894531 197.519531 C 121.601562 197.929688 121.957031 198.429688 121.957031 199.023438 C 121.957031 199.546875 121.691406 199.980469 121.15625 200.316406 "/>
<path fill-rule="nonzero" fill="rgb(13.729858%, 12.159729%, 12.548828%)" fill-opacity="1" d="M 135.609375 196.195312 C 135.609375 199.050781 136.140625 201.179688 137.199219 202.585938 C 138.757812 204.644531 141.226562 205.675781 144.597656 205.675781 C 146.160156 205.675781 147.347656 205.53125 148.171875 205.234375 L 147.292969 200.382812 C 146.644531 200.53125 145.867188 200.605469 144.953125 200.605469 C 143.636719 200.605469 142.664062 200.25 142.046875 199.550781 C 141.578125 198.992188 141.34375 198.089844 141.34375 196.859375 L 141.34375 188.707031 L 148.390625 188.707031 L 148.390625 183.859375 L 141.34375 183.859375 L 141.34375 177.90625 L 135.609375 177.90625 L 135.609375 183.859375 L 129.660156 183.859375 L 129.660156 188.707031 L 135.609375 188.707031 Z M 135.609375 196.195312 "/>
<path fill-rule="nonzero" fill="rgb(13.729858%, 12.159729%, 12.548828%)" fill-opacity="1" d="M 164.34375 180.550781 L 161.257812 173.5 L 155.089844 173.5 L 160.375 180.550781 Z M 164.34375 180.550781 "/>
<path fill-rule="nonzero" fill="rgb(13.729858%, 12.159729%, 12.548828%)" fill-opacity="1" d="M 158.835938 189.167969 C 159.710938 188.421875 160.726562 188.042969 161.871094 188.042969 C 162.992188 188.042969 163.953125 188.421875 164.761719 189.167969 C 165.566406 189.917969 166.015625 190.792969 166.101562 191.789062 L 157.292969 191.789062 C 157.433594 190.792969 157.953125 189.917969 158.835938 189.167969 M 162.667969 205.675781 C 164.34375 205.675781 165.964844 205.335938 167.539062 204.660156 C 169.109375 203.988281 170.40625 203.042969 171.4375 201.839844 L 168.175781 198.578125 C 166.648438 200.222656 164.859375 201.046875 162.800781 201.046875 C 161.273438 201.046875 159.960938 200.574219 158.878906 199.636719 C 157.789062 198.695312 157.175781 197.476562 157.023438 195.972656 L 171.832031 195.972656 C 171.921875 195.507812 171.96875 194.964844 171.96875 194.34375 C 171.96875 191.316406 171.011719 188.742188 169.101562 186.609375 C 167.191406 184.480469 164.785156 183.414062 161.871094 183.414062 C 158.792969 183.414062 156.285156 184.503906 154.363281 186.675781 C 152.4375 188.851562 151.472656 191.480469 151.472656 194.570312 C 151.472656 197.886719 152.535156 200.570312 154.648438 202.613281 C 156.765625 204.652344 159.433594 205.675781 162.667969 205.675781 "/>
<path fill-rule="nonzero" fill="rgb(13.729858%, 12.159729%, 12.548828%)" fill-opacity="1" d="M 182.542969 191.789062 C 182.953125 191.027344 183.632812 190.324219 184.59375 189.671875 C 185.542969 189.027344 186.597656 188.707031 187.738281 188.707031 C 188.679688 188.707031 189.371094 188.777344 189.804688 188.925781 L 190.476562 183.589844 C 189.648438 183.472656 189.007812 183.414062 188.535156 183.414062 C 185.800781 183.414062 183.730469 184.285156 182.320312 186.015625 L 182.320312 183.859375 L 176.808594 183.859375 L 176.808594 205.234375 L 182.542969 205.234375 Z M 182.542969 191.789062 "/>
<path fill-rule="nonzero" fill="rgb(13.729858%, 12.159729%, 12.548828%)" fill-opacity="1" d="M 199.8125 189.167969 C 200.691406 188.421875 201.707031 188.042969 202.851562 188.042969 C 203.96875 188.042969 204.933594 188.421875 205.742188 189.167969 C 206.546875 189.917969 206.992188 190.792969 207.082031 191.789062 L 198.269531 191.789062 C 198.414062 190.792969 198.929688 189.917969 199.8125 189.167969 M 203.648438 205.675781 C 205.324219 205.675781 206.945312 205.335938 208.519531 204.660156 C 210.089844 203.988281 211.386719 203.042969 212.417969 201.839844 L 209.15625 198.578125 C 207.628906 200.222656 205.839844 201.046875 203.78125 201.046875 C 202.25 201.046875 200.941406 200.574219 199.855469 199.636719 C 198.769531 198.695312 198.152344 197.476562 198.003906 195.972656 L 212.808594 195.972656 C 212.898438 195.507812 212.945312 194.964844 212.945312 194.34375 C 212.945312 191.316406 211.988281 188.742188 210.082031 186.609375 C 208.167969 184.480469 205.765625 183.414062 202.851562 183.414062 C 199.769531 183.414062 197.265625 184.503906 195.34375 186.675781 C 193.417969 188.851562 192.449219 191.480469 192.449219 194.570312 C 192.449219 197.886719 193.511719 200.570312 195.628906 202.613281 C 197.746094 204.652344 200.410156 205.675781 203.648438 205.675781 "/>
<path fill-rule="nonzero" fill="rgb(13.729858%, 12.159729%, 12.548828%)" fill-opacity="1" d="M 70.730469 77.265625 L 8.484375 15.027344 L 8.484375 139.492188 L 132.949219 139.492188 L 132.949219 15.027344 Z M 70.730469 77.265625 "/>
<path fill-rule="nonzero" fill="rgb(13.729858%, 12.159729%, 12.548828%)" fill-opacity="1" d="M 319.640625 139.492188 L 381.878906 139.492188 L 381.878906 77.265625 C 381.878906 111.621094 354.023438 139.492188 319.640625 139.492188 "/>
<path fill-rule="nonzero" fill="rgb(13.729858%, 12.159729%, 12.548828%)" fill-opacity="1" d="M 319.640625 15.027344 L 257.414062 15.027344 L 257.414062 77.261719 C 257.414062 42.894531 285.277344 15.027344 319.640625 15.027344 "/>
<path fill-rule="nonzero" fill="rgb(13.729858%, 12.159729%, 12.548828%)" fill-opacity="1" d="M 257.414062 77.265625 L 257.414062 139.492188 L 319.640625 139.492188 C 285.277344 139.492188 257.414062 111.621094 257.414062 77.265625 "/>
<path fill-rule="nonzero" fill="rgb(13.729858%, 12.159729%, 12.548828%)" fill-opacity="1" d="M 319.640625 15.027344 C 354.023438 15.027344 381.878906 42.894531 381.878906 77.261719 L 381.878906 15.027344 Z M 319.640625 15.027344 "/>
<path fill-rule="nonzero" fill="rgb(13.729858%, 12.159729%, 12.548828%)" fill-opacity="1" d="M 257.414062 15.027344 L 195.191406 77.257812 L 132.949219 15.027344 Z M 257.414062 15.027344 "/>
</svg>
